<svg width="240" height="60" viewBox="0 0 240 60" fill="none" xmlns="http://www.w3.org/2000/svg">
<path d="M33.4967 1.43176C32.5011 0.85842 31.4471 0.445578 30.3347 0.193237C27.3805 -0.340625 24.6219 0.231003 22.059 1.90812L16.5307 5.07783L14.2236 6.4142C12.3779 7.4833 9.67286 9.02601 8.55106 9.66372C7.87129 10.0826 7.14774 10.5057 6.38042 10.9332C3.62013 12.4704 1.65805 14.9294 1.01433 18.0038C0.842666 18.8192 0.757694 20.2809 0.75941 22.3889C0.75941 23.8909 0.758553 25.3947 0.756836 26.9001C0.763702 30.0278 0.765419 33.1588 0.761986 36.2934C0.758553 38.9661 0.813484 40.6921 0.926779 41.4715C1.24778 43.6601 2.252 45.5939 3.93941 47.2727C4.54709 47.8787 5.76588 48.7044 7.59577 49.7498C9.44284 50.8072 11.2839 51.8724 13.1189 52.9452C16.2998 54.758 19.4755 56.5784 22.6461 58.4066C25.4407 60.0202 28.2645 60.4082 31.1175 59.5705C32.029 59.3027 33.5233 58.5611 35.6004 57.3457C37.0818 56.4771 38.5727 55.6206 40.073 54.776C43.4753 52.7899 46.8922 50.8184 50.3237 48.8615C53.0479 47.3096 54.7396 44.9828 55.3988 41.8809C55.7233 40.3488 55.6022 38.4382 55.6048 36.7543C55.6014 31.589 55.6005 26.4246 55.6022 21.2611C55.6022 19.6114 55.4889 18.3575 55.2623 17.4992C54.804 15.762 53.8882 14.187 52.5149 12.7742C51.9433 12.1871 50.5752 11.2705 48.4105 10.0242C43.4908 7.19182 38.5195 4.32767 33.4967 1.43176Z" fill="#56CA00"/>
<path d="M14.076 6.67177C14.076 6.55676 14.125 6.47093 14.2228 6.41428L8.56073 9.65783C8.576 9.6501 8.59281 9.64583 8.61003 9.64537C8.63126 9.6448 8.65232 9.65005 8.671 9.66058C8.68968 9.6711 8.7053 9.68652 8.71623 9.7052C8.72715 9.72389 8.73298 9.74516 8.73311 9.7668C8.72968 18.9266 8.73054 28.107 8.73569 37.3079C8.73569 40.4545 10.5149 42.8749 14.0039 41.935C14.0608 41.9201 14.1106 41.8856 14.1445 41.8375C14.1784 41.7895 14.1943 41.731 14.1893 41.6724C14.0966 40.506 13.9911 39.2932 14.0014 38.0959C14.0752 28.3112 14.1001 17.8365 14.076 6.67177Z" fill="#00273C"/>
<path d="M21.9252 2.05325C21.957 1.99443 22.0027 1.94462 22.0582 1.9082L16.5299 5.07791C16.544 5.0703 16.5598 5.06636 16.5758 5.06646C16.5918 5.06657 16.6074 5.07071 16.6211 5.07849C16.6349 5.08627 16.6463 5.09742 16.6542 5.11085C16.6621 5.12429 16.6663 5.13955 16.6664 5.15515L16.6046 40.936C16.6049 40.9569 16.6104 40.9774 16.6206 40.9956C16.6307 41.0138 16.6453 41.0293 16.6629 41.0405C16.6805 41.0517 16.7006 41.0584 16.7215 41.0599C16.7423 41.0615 16.7632 41.0578 16.7823 41.0493C18.5212 40.2562 20.121 39.3636 21.5819 38.3714C21.896 38.1577 21.8316 37.8796 21.8316 37.5577C21.8248 25.7629 21.8394 13.9922 21.8754 2.24551C21.8762 2.17809 21.8933 2.11207 21.9252 2.05325Z" fill="#00273C"/>
<path d="M21.1657 48.8497C21.1691 48.8602 21.1762 48.869 21.1858 48.8745C22.4029 49.6435 23.5831 50.2932 24.7263 50.8237C27.3424 52.0365 29.4616 51.4854 31.8639 50.0847C35.1718 48.1586 38.5664 46.2137 42.0477 44.2499C43.663 43.3384 44.7178 42.6346 45.2122 42.1385C46.1615 41.1875 46.843 40.0692 47.2567 38.7834C47.5262 37.9406 47.6524 36.6162 47.6352 34.8104C47.6282 34.0807 47.6222 33.4654 47.6174 32.909C47.6066 31.6541 47.1068 30.5283 46.3096 29.7005C44.5517 27.8754 42.2822 30.1903 42.2594 32.7242C42.2539 33.3359 42.2485 33.9331 42.2434 34.4911C42.2228 36.757 41.4014 38.4847 39.3904 39.6229C35.5606 41.7943 31.4434 44.159 27.0386 46.7167C25.3958 47.672 23.2226 48.7174 21.2785 48.7483C21.227 48.7483 21.1901 48.7715 21.1678 48.8178C21.1631 48.8278 21.1624 48.8392 21.1657 48.8497Z" fill="#00273C"/>
<path d="M22.1025 40.8073C19.5971 42.3059 16.945 43.9487 14.0533 44.147C13.8044 44.1641 13.7847 44.2397 13.9941 44.3736C14.9589 44.9898 16.0849 45.6052 17.3724 46.2198C20.1559 47.551 22.4063 46.8249 24.8242 45.3855C28.9886 42.9033 33.0647 40.47 37.0524 38.0856C38.1476 37.4299 38.9106 36.5707 39.3415 35.5082C39.6024 34.8576 39.7346 34.0345 39.738 33.0388C39.7401 31.9449 39.7424 31.1029 39.7449 29.9976L32.9428 34.3855C29.271 36.5398 25.6576 38.6804 22.1025 40.8073Z" fill="#00273C"/>
<path d="M96.7128 44.5H71.1087V13.2527H78.1043V38.2039H96.7128V44.5ZM106.198 44.5H98.3626L112.028 13.2527H122.008L135.766 44.5H127.744L124.806 37.5976H109.183L106.198 44.5ZM114.826 24.4924L111.888 31.3015H122.101L119.163 24.4924L117.251 19.6421H116.738L114.826 24.4924ZM145.373 44.5H136.232L148.405 29.0629V28.5499L136.232 13.2527H145.373L154.141 24.3991H154.654L163.096 13.2527H172.237L160.111 28.6898V29.2028L172.237 44.5H163.096L154.374 33.2137H153.861L145.373 44.5ZM190.785 44.9664C180.478 44.9664 174.089 38.6236 174.089 28.8763C174.089 19.129 180.478 12.7863 190.785 12.7863C200.486 12.7863 206.735 17.6366 206.735 25.5651V26.2646H198.947V25.5651C198.947 21.4609 196.615 19.5021 190.925 19.5021C184.069 19.5021 181.504 21.9273 181.504 28.8763C181.504 35.8254 184.069 38.2505 190.925 38.2505C196.615 38.2505 198.947 36.2917 198.947 32.1876V31.4881H206.735V32.1876C206.735 40.116 200.533 44.9664 190.785 44.9664ZM237.143 44.5H210.7V13.2527H237.143V19.5488H217.695V25.6583H236.444V31.9078H217.695V38.2039H237.143V44.5Z" fill="white"/>
</svg>
