<svg width="287" height="40" viewBox="0 0 287 40" fill="none" xmlns="http://www.w3.org/2000/svg">
<path d="M0.584 22.104C0.584 18.776 1.304 15.816 2.744 13.224C4.184 10.6 6.184 8.568 8.744 7.128C11.336 5.656 14.264 4.92 17.528 4.92C21.528 4.92 24.952 5.976 27.8 8.088C30.648 10.2 32.552 13.08 33.512 16.728H24.488C23.816 15.32 22.856 14.248 21.608 13.512C20.392 12.776 19 12.408 17.432 12.408C14.904 12.408 12.856 13.288 11.288 15.048C9.72 16.808 8.936 19.16 8.936 22.104C8.936 25.048 9.72 27.4 11.288 29.16C12.856 30.92 14.904 31.8 17.432 31.8C19 31.8 20.392 31.432 21.608 30.696C22.856 29.96 23.816 28.888 24.488 27.48H33.512C32.552 31.128 30.648 34.008 27.8 36.12C24.952 38.2 21.528 39.24 17.528 39.24C14.264 39.24 11.336 38.52 8.744 37.08C6.184 35.608 4.184 33.576 2.744 30.984C1.304 28.392 0.584 25.432 0.584 22.104ZM46.7465 3.48V39H38.5385V3.48H46.7465ZM77.9427 25.176C77.9427 25.944 77.8948 26.744 77.7988 27.576H59.2228C59.3508 29.24 59.8788 30.52 60.8068 31.416C61.7668 32.28 62.9348 32.712 64.3108 32.712C66.3588 32.712 67.7828 31.848 68.5828 30.12H77.3188C76.8708 31.88 76.0548 33.464 74.8708 34.872C73.7188 36.28 72.2628 37.384 70.5028 38.184C68.7428 38.984 66.7748 39.384 64.5988 39.384C61.9748 39.384 59.6388 38.824 57.5908 37.704C55.5428 36.584 53.9428 34.984 52.7908 32.904C51.6388 30.824 51.0628 28.392 51.0628 25.608C51.0628 22.824 51.6228 20.392 52.7428 18.312C53.8948 16.232 55.4948 14.632 57.5428 13.512C59.5908 12.392 61.9428 11.832 64.5988 11.832C67.1908 11.832 69.4948 12.376 71.5108 13.464C73.5268 14.552 75.0948 16.104 76.2148 18.12C77.3668 20.136 77.9427 22.488 77.9427 25.176ZM69.5428 23.016C69.5428 21.608 69.0628 20.488 68.1028 19.656C67.1428 18.824 65.9428 18.408 64.5028 18.408C63.1268 18.408 61.9588 18.808 60.9988 19.608C60.0708 20.408 59.4948 21.544 59.2708 23.016H69.5428ZM116.449 11.928C119.777 11.928 122.417 12.936 124.369 14.952C126.353 16.968 127.345 19.768 127.345 23.352V39H119.185V24.456C119.185 22.728 118.721 21.4 117.793 20.472C116.897 19.512 115.649 19.032 114.049 19.032C112.449 19.032 111.185 19.512 110.257 20.472C109.361 21.4 108.913 22.728 108.913 24.456V39H100.753V24.456C100.753 22.728 100.289 21.4 99.3609 20.472C98.4649 19.512 97.2169 19.032 95.6169 19.032C94.0169 19.032 92.7529 19.512 91.8249 20.472C90.9289 21.4 90.4809 22.728 90.4809 24.456V39H82.2729V12.216H90.4809V15.576C91.3129 14.456 92.4009 13.576 93.7449 12.936C95.0889 12.264 96.6089 11.928 98.3049 11.928C100.321 11.928 102.113 12.36 103.681 13.224C105.281 14.088 106.529 15.32 107.425 16.92C108.353 15.448 109.617 14.248 111.217 13.32C112.817 12.392 114.561 11.928 116.449 11.928ZM158.333 25.176C158.333 25.944 158.285 26.744 158.189 27.576H139.613C139.741 29.24 140.269 30.52 141.197 31.416C142.157 32.28 143.325 32.712 144.701 32.712C146.749 32.712 148.173 31.848 148.973 30.12H157.709C157.261 31.88 156.445 33.464 155.261 34.872C154.109 36.28 152.653 37.384 150.893 38.184C149.133 38.984 147.165 39.384 144.989 39.384C142.365 39.384 140.029 38.824 137.981 37.704C135.933 36.584 134.333 34.984 133.181 32.904C132.029 30.824 131.453 28.392 131.453 25.608C131.453 22.824 132.013 20.392 133.133 18.312C134.285 16.232 135.885 14.632 137.933 13.512C139.981 12.392 142.333 11.832 144.989 11.832C147.581 11.832 149.885 12.376 151.901 13.464C153.917 14.552 155.485 16.104 156.605 18.12C157.757 20.136 158.333 22.488 158.333 25.176ZM149.933 23.016C149.933 21.608 149.453 20.488 148.493 19.656C147.533 18.824 146.333 18.408 144.893 18.408C143.517 18.408 142.349 18.808 141.389 19.608C140.461 20.408 139.885 21.544 139.661 23.016H149.933ZM178.984 11.928C182.12 11.928 184.616 12.952 186.472 15C188.36 17.016 189.304 19.8 189.304 23.352V39H181.144V24.456C181.144 22.664 180.68 21.272 179.752 20.28C178.824 19.288 177.576 18.792 176.008 18.792C174.44 18.792 173.192 19.288 172.264 20.28C171.336 21.272 170.872 22.664 170.872 24.456V39H162.664V12.216H170.872V15.768C171.704 14.584 172.824 13.656 174.232 12.984C175.64 12.28 177.224 11.928 178.984 11.928ZM209.935 32.04V39H205.759C202.783 39 200.463 38.28 198.799 36.84C197.135 35.368 196.303 32.984 196.303 29.688V19.032H193.039V12.216H196.303V5.688H204.511V12.216H209.887V19.032H204.511V29.784C204.511 30.584 204.703 31.16 205.087 31.512C205.471 31.864 206.111 32.04 207.007 32.04H209.935ZM218.635 9.432C217.195 9.432 216.011 9.016 215.083 8.184C214.187 7.32 213.739 6.264 213.739 5.016C213.739 3.736 214.187 2.68 215.083 1.848C216.011 0.983997 217.195 0.551997 218.635 0.551997C220.043 0.551997 221.195 0.983997 222.091 1.848C223.019 2.68 223.483 3.736 223.483 5.016C223.483 6.264 223.019 7.32 222.091 8.184C221.195 9.016 220.043 9.432 218.635 9.432ZM222.715 12.216V39H214.507V12.216H222.715ZM244.984 11.928C248.12 11.928 250.616 12.952 252.472 15C254.36 17.016 255.304 19.8 255.304 23.352V39H247.144V24.456C247.144 22.664 246.68 21.272 245.752 20.28C244.824 19.288 243.576 18.792 242.008 18.792C240.44 18.792 239.192 19.288 238.264 20.28C237.336 21.272 236.872 22.664 236.872 24.456V39H228.664V12.216H236.872V15.768C237.704 14.584 238.824 13.656 240.232 12.984C241.64 12.28 243.224 11.928 244.984 11.928ZM286.255 25.176C286.255 25.944 286.207 26.744 286.111 27.576H267.535C267.663 29.24 268.191 30.52 269.119 31.416C270.079 32.28 271.247 32.712 272.623 32.712C274.671 32.712 276.095 31.848 276.895 30.12H285.631C285.183 31.88 284.367 33.464 283.183 34.872C282.031 36.28 280.575 37.384 278.815 38.184C277.055 38.984 275.087 39.384 272.911 39.384C270.287 39.384 267.951 38.824 265.903 37.704C263.855 36.584 262.255 34.984 261.103 32.904C259.951 30.824 259.375 28.392 259.375 25.608C259.375 22.824 259.935 20.392 261.055 18.312C262.207 16.232 263.807 14.632 265.855 13.512C267.903 12.392 270.255 11.832 272.911 11.832C275.503 11.832 277.807 12.376 279.823 13.464C281.839 14.552 283.407 16.104 284.527 18.12C285.679 20.136 286.255 22.488 286.255 25.176ZM277.855 23.016C277.855 21.608 277.375 20.488 276.415 19.656C275.455 18.824 274.255 18.408 272.815 18.408C271.439 18.408 270.271 18.808 269.311 19.608C268.383 20.408 267.807 21.544 267.583 23.016H277.855Z" fill="url(#paint0_linear_19_8072)"/>
<defs>
<linearGradient id="paint0_linear_19_8072" x1="17.0625" y1="33.4" x2="250.312" y2="-11.2947" gradientUnits="userSpaceOnUse">
<stop stop-color="#56CA00"/>
<stop offset="1" stop-color="#1E9AD3"/>
</linearGradient>
</defs>
</svg>
