<svg width="22" height="22" viewBox="0 0 22 22" fill="none" xmlns="http://www.w3.org/2000/svg">
<path d="M7.15386 1H2.53847C1.68879 1 1 1.68879 1 2.53846V7.15385C1 8.00352 1.68879 8.69231 2.53847 8.69231H7.15386C8.00353 8.69231 8.69233 8.00352 8.69233 7.15385V2.53846C8.69233 1.68879 8.00353 1 7.15386 1Z" stroke="white" stroke-width="1.66667" stroke-linecap="round" stroke-linejoin="round"/>
<path d="M19.4616 1H14.8462C13.9965 1 13.3077 1.68879 13.3077 2.53846V7.15385C13.3077 8.00352 13.9965 8.69231 14.8462 8.69231H19.4616C20.3113 8.69231 21.0001 8.00352 21.0001 7.15385V2.53846C21.0001 1.68879 20.3113 1 19.4616 1Z" stroke="white" stroke-width="1.66667" stroke-linecap="round" stroke-linejoin="round"/>
<path d="M7.15386 13.3077H2.53847C1.68879 13.3077 1 13.9965 1 14.8462V19.4615C1 20.3112 1.68879 21 2.53847 21H7.15386C8.00353 21 8.69233 20.3112 8.69233 19.4615V14.8462C8.69233 13.9965 8.00353 13.3077 7.15386 13.3077Z" stroke="white" stroke-width="1.66667" stroke-linecap="round" stroke-linejoin="round"/>
<path d="M19.4616 13.3077H14.8462C13.9965 13.3077 13.3077 13.9965 13.3077 14.8462V19.4615C13.3077 20.3112 13.9965 21 14.8462 21H19.4616C20.3113 21 21.0001 20.3112 21.0001 19.4615V14.8462C21.0001 13.9965 20.3113 13.3077 19.4616 13.3077Z" stroke="white" stroke-width="1.66667" stroke-linecap="round" stroke-linejoin="round"/>
</svg>
