<svg width="38" height="39" viewBox="0 0 38 39" fill="none" xmlns="http://www.w3.org/2000/svg">
<path d="M37.6543 15.6651C37.9785 18.3413 35.0582 31.2684 26.2548 35.2982C32.7845 31.6539 41.5753 14.5633 32.7845 6.35696C31.5739 5.57959 30.2205 5.05425 28.8043 4.81201C41.6114 9.28801 30.8703 40.2663 9.70215 36.1207C12.5271 37.6849 15.7006 38.5035 18.9258 38.4999C31.6891 38.4999 39.809 26.6339 37.6543 15.6651Z" fill="url(#paint0_linear_284_7229)"/>
<path d="M8.19023 32.3408C7.93205 33.4617 6.99771 33.3911 4.63785 30.3243C-5.74773 16.8642 20.7018 -1.21421 32.8794 6.4123C25.7451 -1.00233 13.3285 -1.78924 5.45239 6.02964C2.40847 9.04665 0.485227 13.01 0 17.2658C1.00468 14.2677 8.12467 1.19763 22.8306 3.39835C14.1542 2.92765 7.1687 7.93821 3.51923 12.7585C-1.80293 19.7675 0.70688 28.926 6.04326 33.4268C7.60412 34.3196 8.05889 33.3791 8.19023 32.3408Z" fill="url(#paint1_linear_284_7229)"/>
<path d="M7.23336 25.5813C7.46303 26.8429 8.45117 30.7997 8.0843 32.3818C7.95239 33.4195 7.49594 34.3594 5.9292 33.4672C9.63527 36.4886 9.49953 29.4325 14.2118 23.0387C14.3694 22.8253 14.0009 17.5913 14.1692 17.3794C14.2656 17.2585 14.8953 22.1589 14.9954 22.039C15.8499 21.0101 16.808 20.0708 17.8547 19.2358C17.9667 19.1465 18.4966 15.5114 18.6119 15.4237C18.7102 15.3493 18.3931 18.8212 18.4943 18.7478C19.7184 17.8529 22.239 16.5485 23.8701 15.8714C23.0542 16.3456 20.6953 17.7715 19.618 18.6927L23.5377 18.4329C23.5377 18.4329 19.0043 19.2243 18.8812 19.3395C18.3808 19.8067 16.6304 21.6972 14.8943 24.4678C14.7868 24.6396 20.49 23.7677 20.3827 23.9458C20.2685 24.135 14.3448 25.3758 14.2319 25.5732C12.9899 27.6994 12.051 29.9871 11.4421 32.3704C29.5946 36.8968 29.7034 12.8095 29.7803 6.96814C24.9824 13.9205 4.59497 11.3984 7.23336 25.5813Z" fill="#26E61F"/>
<defs>
<linearGradient id="paint0_linear_284_7229" x1="23.8511" y1="4.81201" x2="23.8511" y2="38.5" gradientUnits="userSpaceOnUse">
<stop stop-color="#1E9AD3"/>
<stop offset="1" stop-color="#56CA00"/>
</linearGradient>
<linearGradient id="paint1_linear_284_7229" x1="16.4397" y1="0.5" x2="16.4397" y2="33.7837" gradientUnits="userSpaceOnUse">
<stop stop-color="#1E9AD3"/>
<stop offset="1" stop-color="#0A6618"/>
</linearGradient>
</defs>
</svg>
