<svg width="21" height="20" viewBox="0 0 21 20" fill="none" xmlns="http://www.w3.org/2000/svg">
<path d="M9.5 13V11C8.70435 11 7.94129 10.6839 7.37868 10.1213C6.81607 9.55871 6.5 8.79565 6.5 8C6.5 7.20435 6.81607 6.44129 7.37868 5.87868C7.94129 5.31607 8.70435 5 9.5 5V4C9.5 3.73478 9.60536 3.48043 9.79289 3.29289C9.98043 3.10536 10.2348 3 10.5 3C10.7652 3 11.0196 3.10536 11.2071 3.29289C11.3946 3.48043 11.5 3.73478 11.5 4V5H11.522C12.3118 5 13.0693 5.31375 13.6278 5.87224C14.1862 6.43072 14.5 7.18819 14.5 7.978C14.5 8.24322 14.3946 8.49757 14.2071 8.68511C14.0196 8.87264 13.7652 8.978 13.5 8.978C13.2348 8.978 12.9804 8.87264 12.7929 8.68511C12.6054 8.49757 12.5 8.24322 12.5 7.978C12.5 7.71862 12.397 7.46986 12.2136 7.28645C12.0301 7.10304 11.7814 7 11.522 7H11.5V9C12.2956 9 13.0587 9.31607 13.6213 9.87868C14.1839 10.4413 14.5 11.2044 14.5 12C14.5 12.7956 14.1839 13.5587 13.6213 14.1213C13.0587 14.6839 12.2956 15 11.5 15V16C11.5 16.2652 11.3946 16.5196 11.2071 16.7071C11.0196 16.8946 10.7652 17 10.5 17C10.2348 17 9.98043 16.8946 9.79289 16.7071C9.60536 16.5196 9.5 16.2652 9.5 16V15H9.449C8.66688 15 7.91679 14.6893 7.36374 14.1363C6.8107 13.5832 6.5 12.8331 6.5 12.051C6.5 11.7858 6.60536 11.5314 6.79289 11.3439C6.98043 11.1564 7.23478 11.051 7.5 11.051C7.76522 11.051 8.01957 11.1564 8.20711 11.3439C8.39464 11.5314 8.5 11.7858 8.5 12.051C8.50027 12.3026 8.60033 12.5438 8.77825 12.7218C8.95616 12.8997 9.19739 12.9997 9.449 13H9.5ZM11.5 13C11.7652 13 12.0196 12.8946 12.2071 12.7071C12.3946 12.5196 12.5 12.2652 12.5 12C12.5 11.7348 12.3946 11.4804 12.2071 11.2929C12.0196 11.1054 11.7652 11 11.5 11V13ZM9.5 7C9.23478 7 8.98043 7.10536 8.79289 7.29289C8.60536 7.48043 8.5 7.73478 8.5 8C8.5 8.26522 8.60536 8.51957 8.79289 8.70711C8.98043 8.89464 9.23478 9 9.5 9V7ZM10.5 20C4.977 20 0.5 15.523 0.5 10C0.5 4.477 4.977 0 10.5 0C16.023 0 20.5 4.477 20.5 10C20.5 15.523 16.023 20 10.5 20ZM10.5 18C12.6217 18 14.6566 17.1571 16.1569 15.6569C17.6571 14.1566 18.5 12.1217 18.5 10C18.5 7.87827 17.6571 5.84344 16.1569 4.34315C14.6566 2.84285 12.6217 2 10.5 2C8.37827 2 6.34344 2.84285 4.84315 4.34315C3.34285 5.84344 2.5 7.87827 2.5 10C2.5 12.1217 3.34285 14.1566 4.84315 15.6569C6.34344 17.1571 8.37827 18 10.5 18Z" fill="white"/>
</svg>
