<svg width="142" height="36" viewBox="0 0 142 36" fill="none" xmlns="http://www.w3.org/2000/svg">
<path d="M24.344 11.96C23.736 10.84 22.856 9.992 21.704 9.416C20.584 8.808 19.256 8.504 17.72 8.504C15.064 8.504 12.936 9.384 11.336 11.144C9.736 12.872 8.936 15.192 8.936 18.104C8.936 21.208 9.768 23.64 11.432 25.4C13.128 27.128 15.448 27.992 18.392 27.992C20.408 27.992 22.104 27.48 23.48 26.456C24.888 25.432 25.912 23.96 26.552 22.04H16.136V15.992H33.992V23.624C33.384 25.672 32.344 27.576 30.872 29.336C29.432 31.096 27.592 32.52 25.352 33.608C23.112 34.696 20.584 35.24 17.768 35.24C14.44 35.24 11.464 34.52 8.84 33.08C6.248 31.608 4.216 29.576 2.744 26.984C1.304 24.392 0.584 21.432 0.584 18.104C0.584 14.776 1.304 11.816 2.744 9.224C4.216 6.6 6.248 4.568 8.84 3.128C11.432 1.656 14.392 0.919998 17.72 0.919998C21.752 0.919998 25.144 1.896 27.896 3.848C30.68 5.8 32.52 8.504 33.416 11.96H24.344ZM51.1625 1.304C54.7145 1.304 57.8185 2.008 60.4745 3.416C63.1305 4.824 65.1785 6.808 66.6185 9.368C68.0905 11.896 68.8265 14.824 68.8265 18.152C68.8265 21.448 68.0905 24.376 66.6185 26.936C65.1785 29.496 63.1145 31.48 60.4265 32.888C57.7705 34.296 54.6825 35 51.1625 35H38.5385V1.304H51.1625ZM50.6345 27.896C53.7385 27.896 56.1545 27.048 57.8825 25.352C59.6105 23.656 60.4745 21.256 60.4745 18.152C60.4745 15.048 59.6105 12.632 57.8825 10.904C56.1545 9.176 53.7385 8.312 50.6345 8.312H46.7465V27.896H50.6345ZM72.0215 18.104C72.0215 14.776 72.7415 11.816 74.1815 9.224C75.6215 6.6 77.6215 4.568 80.1815 3.128C82.7735 1.656 85.7015 0.919998 88.9655 0.919998C92.9655 0.919998 96.3895 1.976 99.2375 4.088C102.086 6.2 103.99 9.08 104.95 12.728H95.9255C95.2535 11.32 94.2935 10.248 93.0455 9.512C91.8295 8.776 90.4375 8.408 88.8695 8.408C86.3415 8.408 84.2935 9.288 82.7255 11.048C81.1575 12.808 80.3735 15.16 80.3735 18.104C80.3735 21.048 81.1575 23.4 82.7255 25.16C84.2935 26.92 86.3415 27.8 88.8695 27.8C90.4375 27.8 91.8295 27.432 93.0455 26.696C94.2935 25.96 95.2535 24.888 95.9255 23.48H104.95C103.99 27.128 102.086 30.008 99.2375 32.12C96.3895 34.2 92.9655 35.24 88.9655 35.24C85.7015 35.24 82.7735 34.52 80.1815 33.08C77.6215 31.608 75.6215 29.576 74.1815 26.984C72.7415 24.392 72.0215 21.432 72.0215 18.104ZM108.584 18.104C108.584 14.776 109.304 11.816 110.744 9.224C112.184 6.6 114.184 4.568 116.744 3.128C119.336 1.656 122.264 0.919998 125.528 0.919998C129.528 0.919998 132.952 1.976 135.8 4.088C138.648 6.2 140.552 9.08 141.512 12.728H132.488C131.816 11.32 130.856 10.248 129.608 9.512C128.392 8.776 127 8.408 125.432 8.408C122.904 8.408 120.856 9.288 119.288 11.048C117.72 12.808 116.936 15.16 116.936 18.104C116.936 21.048 117.72 23.4 119.288 25.16C120.856 26.92 122.904 27.8 125.432 27.8C127 27.8 128.392 27.432 129.608 26.696C130.856 25.96 131.816 24.888 132.488 23.48H141.512C140.552 27.128 138.648 30.008 135.8 32.12C132.952 34.2 129.528 35.24 125.528 35.24C122.264 35.24 119.336 34.52 116.744 33.08C114.184 31.608 112.184 29.576 110.744 26.984C109.304 24.392 108.584 21.432 108.584 18.104Z" fill="url(#paint0_linear_152_129)"/>
<defs>
<linearGradient id="paint0_linear_152_129" x1="8.0625" y1="29.4" x2="128.277" y2="17.8426" gradientUnits="userSpaceOnUse">
<stop stop-color="#675AE7"/>
<stop offset="0.705" stop-color="#56CA00"/>
</linearGradient>
</defs>
</svg>
