<svg width="150" height="150" viewBox="0 0 681 718" fill="none" xmlns="http://www.w3.org/2000/svg">
<rect x="0.142578" width="680" height="717.414" rx="117.647" />
<path d="M378.824 150.439C371.565 146.259 363.881 143.249 355.772 141.41C334.235 137.518 314.124 141.685 295.44 153.912L255.138 177.019L238.318 186.762C224.863 194.556 205.142 205.803 196.964 210.452C192.009 213.505 186.734 216.59 181.14 219.706C161.017 230.913 146.713 248.84 142.02 271.253C140.768 277.197 140.149 287.853 140.161 303.221C140.161 314.171 140.155 325.134 140.143 336.109C140.193 358.91 140.205 381.736 140.18 404.588C140.155 424.073 140.556 436.656 141.382 442.337C143.722 458.293 151.043 472.391 163.344 484.63C167.774 489.047 176.66 495.067 190 502.688C203.465 510.397 216.887 518.162 230.265 525.984C253.454 539.199 276.606 552.47 299.72 565.798C320.094 577.562 340.68 580.39 361.479 574.283C368.124 572.331 379.018 566.925 394.16 558.064C404.96 551.732 415.829 545.487 426.766 539.33C451.57 524.851 476.48 510.478 501.496 496.212C521.357 484.899 533.689 467.936 538.495 445.322C540.86 434.153 539.978 420.224 539.997 407.948C539.972 370.292 539.965 332.642 539.978 294.999C539.978 282.973 539.152 273.831 537.5 267.574C534.159 254.909 527.482 243.427 517.471 233.128C513.304 228.848 503.33 222.165 487.549 213.08C451.683 192.431 415.441 171.551 378.824 150.439Z" fill="#00273C"/>
<path d="M237.243 188.639C237.243 187.8 237.6 187.175 238.313 186.762L197.035 210.408C197.146 210.352 197.269 210.32 197.394 210.317C197.549 210.313 197.703 210.351 197.839 210.428C197.975 210.505 198.089 210.617 198.169 210.753C198.248 210.89 198.291 211.045 198.292 211.202C198.267 277.979 198.273 344.906 198.311 411.984C198.311 434.922 211.282 452.568 236.717 445.716C237.132 445.607 237.495 445.355 237.742 445.005C237.989 444.655 238.105 444.229 238.069 443.801C237.393 435.298 236.623 426.456 236.699 417.728C237.237 346.396 237.418 270.033 237.243 188.639Z" fill="#56CA00"/>
<path d="M294.465 154.969C294.697 154.54 295.03 154.177 295.435 153.911L255.132 177.019C255.235 176.964 255.35 176.935 255.466 176.936C255.583 176.937 255.697 176.967 255.797 177.024C255.897 177.08 255.98 177.162 256.038 177.259C256.096 177.357 256.127 177.469 256.127 177.582L255.677 438.433C255.679 438.585 255.719 438.734 255.793 438.867C255.867 439 255.973 439.113 256.102 439.195C256.23 439.276 256.377 439.325 256.529 439.336C256.681 439.348 256.833 439.321 256.972 439.259C269.649 433.477 281.312 426.97 291.962 419.736C294.252 418.178 293.783 416.151 293.783 413.804C293.733 327.818 293.839 242.007 294.102 156.37C294.108 155.879 294.232 155.398 294.465 154.969Z" fill="#56CA00"/>
<path d="M288.928 496.125C288.952 496.202 289.004 496.266 289.074 496.306C297.947 501.912 306.551 506.649 314.885 510.516C333.957 519.357 349.406 515.34 366.92 505.128C391.035 491.087 415.783 476.908 441.162 462.592C452.938 455.947 460.628 450.816 464.232 447.199C471.153 440.266 476.121 432.113 479.137 422.74C481.102 416.595 482.021 406.94 481.896 393.775C481.845 388.456 481.802 383.97 481.767 379.914C481.687 370.766 478.044 362.558 472.232 356.523C459.417 343.218 442.871 360.094 442.705 378.567C442.665 383.026 442.626 387.38 442.588 391.447C442.438 407.967 436.45 420.562 421.789 428.859C393.87 444.69 363.854 461.929 331.742 480.575C319.766 487.539 303.923 495.161 289.75 495.386C289.375 495.386 289.105 495.555 288.943 495.893C288.909 495.965 288.903 496.048 288.928 496.125Z" fill="#56CA00"/>
<path d="M295.757 437.494C277.492 448.419 258.157 460.396 237.077 461.841C235.262 461.966 235.118 462.517 236.645 463.493C243.678 467.986 251.888 472.472 261.273 476.952C281.566 486.657 297.972 481.364 315.598 470.87C345.958 452.774 375.674 435.035 404.745 417.653C412.729 412.872 418.292 406.609 421.433 398.862C423.335 394.119 424.299 388.119 424.324 380.86C424.339 372.886 424.356 366.747 424.374 358.689L374.785 390.678C348.017 406.384 321.674 421.989 295.757 437.494Z" fill="#56CA00"/>
</svg>
