<svg width="222" height="73" viewBox="0 0 222 73" fill="none" xmlns="http://www.w3.org/2000/svg">
<path d="M40.4 1.72729C39.1989 1.03566 37.9275 0.537649 36.5857 0.23325C33.0219 -0.41075 29.6942 0.278806 26.6026 2.30192L19.9338 6.12554L17.1507 7.73762C14.9243 9.02728 11.6612 10.8882 10.308 11.6575C9.48795 12.1628 8.61513 12.6732 7.68951 13.1888C4.35976 15.0432 1.9929 18.0095 1.21637 21.7182C1.0093 22.7018 0.906797 24.4651 0.908867 27.0079C0.908867 28.8198 0.907832 30.6338 0.905762 32.4498C0.914045 36.2227 0.916116 39.9998 0.911974 43.7809C0.907833 47.0051 0.974096 49.0872 1.11077 50.0273C1.49799 52.6675 2.70938 55.0002 4.74492 57.0254C5.47796 57.7564 6.94818 58.7524 9.15559 60.0135C11.3837 61.2891 13.6046 62.5739 15.8182 63.8682C19.6553 66.0549 23.4862 68.2509 27.3108 70.4562C30.682 72.4027 34.0884 72.8707 37.5299 71.8602C38.6295 71.5372 40.4321 70.6426 42.9377 69.1765C44.7247 68.1287 46.5232 67.0954 48.333 66.0766C52.4372 63.6808 56.559 61.3025 60.6984 58.9419C63.9847 57.0699 66.0254 54.263 66.8206 50.5212C67.2119 48.6731 67.0659 46.3683 67.069 44.3369C67.0649 38.1061 67.0639 31.8762 67.0659 25.6475C67.0659 23.6575 66.9293 22.1448 66.6559 21.1094C66.103 19.0138 64.9983 17.1139 63.3417 15.4097C62.6522 14.7015 61.0018 13.5957 58.3906 12.0924C52.4558 8.67566 46.459 5.22063 40.4 1.72729Z" fill="#04D9D7"/>
<path d="M16.9733 8.04831C16.9733 7.90957 17.0323 7.80603 17.1504 7.7377L10.3202 11.6504C10.3386 11.6411 10.3589 11.6359 10.3797 11.6354C10.4053 11.6347 10.4307 11.641 10.4532 11.6537C10.4758 11.6664 10.4946 11.685 10.5078 11.7075C10.521 11.7301 10.528 11.7557 10.5282 11.7819C10.524 22.8313 10.525 33.9057 10.5313 45.0048C10.5313 48.8005 12.6776 51.7202 16.8864 50.5865C16.955 50.5685 17.015 50.5268 17.0559 50.4689C17.0968 50.4109 17.116 50.3404 17.11 50.2697C16.9982 48.8626 16.8708 47.3996 16.8833 45.9553C16.9723 34.1521 17.0023 21.5164 16.9733 8.04831Z" fill="#00273C"/>
<path d="M26.4417 2.47697C26.4802 2.40601 26.5353 2.34593 26.6023 2.302L19.9335 6.12562C19.9504 6.11645 19.9695 6.1117 19.9888 6.11182C20.0081 6.11194 20.0269 6.11694 20.0435 6.12633C20.0601 6.13571 20.0738 6.14916 20.0834 6.16537C20.0929 6.18158 20.098 6.19999 20.0981 6.21881L20.0235 49.3813C20.0239 49.4065 20.0305 49.4312 20.0428 49.4532C20.0551 49.4752 20.0726 49.4939 20.0939 49.5074C20.1151 49.5209 20.1394 49.529 20.1645 49.5309C20.1897 49.5327 20.2149 49.5283 20.2379 49.518C22.3355 48.5613 24.2654 47.4845 26.0276 46.2877C26.4066 46.0298 26.3289 45.6944 26.3289 45.3061C26.3207 31.0781 26.3383 16.879 26.3817 2.7089C26.3827 2.62757 26.4033 2.54792 26.4417 2.47697Z" fill="#00273C"/>
<path d="M25.5259 58.9275C25.53 58.9401 25.5386 58.9508 25.5502 58.9574C27.0183 59.8851 28.442 60.6688 29.8211 61.3087C32.9769 62.7717 35.5332 62.107 38.4312 60.4173C42.4215 58.0939 46.5164 55.7477 50.7159 53.3788C52.6645 52.2792 53.9369 51.4302 54.5333 50.8318C55.6784 49.6846 56.5005 48.3355 56.9996 46.7845C57.3247 45.7678 57.4769 44.1702 57.4562 41.9918C57.4477 41.1116 57.4405 40.3694 57.4347 39.6982C57.4216 38.1845 56.8188 36.8263 55.8571 35.8278C53.7365 33.6261 50.9988 36.4186 50.9713 39.4753C50.9646 40.2131 50.9582 40.9336 50.952 41.6066C50.9271 44.34 49.9363 46.4242 47.5104 47.7971C42.8906 50.4166 37.9239 53.2691 32.6104 56.3545C30.6287 57.5068 28.0071 58.7679 25.662 58.8052C25.5999 58.8052 25.5554 58.8331 25.5284 58.889C25.5228 58.9011 25.5219 58.9148 25.5259 58.9275Z" fill="#00273C"/>
<path d="M26.656 49.2259C23.6337 51.0337 20.4344 53.0154 16.9463 53.2546C16.646 53.2753 16.6222 53.3664 16.8748 53.5279C18.0386 54.2713 19.397 55.0137 20.95 55.755C24.3077 57.3609 27.0225 56.4849 29.9391 54.7486C34.9627 51.7543 39.8797 48.819 44.69 45.9428C46.0112 45.1518 46.9316 44.1154 47.4514 42.8336C47.7661 42.0488 47.9256 41.0558 47.9297 39.8548C47.9323 38.5352 47.935 37.5194 47.938 36.1862L39.7327 41.4793C35.3034 44.0781 30.9445 46.6603 26.656 49.2259Z" fill="#00273C"/>
<path d="M104.513 39.0807H83.1445V11.6011H87.574V35.1023H104.513V39.0807ZM110.248 39.0807H105.326L117.589 11.6011H123.823L136.087 39.0807H131.083L127.925 31.9442H113.406L110.248 39.0807ZM118.902 19.5989L115.169 27.9658H126.161L122.429 19.5989L120.829 15.7025H120.501L118.902 19.5989ZM141.829 39.0807H136.087L147.16 25.4229V25.0948L136.087 11.6011H141.829L150.77 22.4289H151.098L159.834 11.6011H165.576L154.502 25.1358V25.4639L165.576 39.0807H159.834L150.934 28.0478H150.606L141.829 39.0807Z" fill="white"/>
<path d="M180.987 39.4908C172.456 39.4908 166.796 33.9129 166.796 25.3409C166.796 16.7689 172.456 11.191 180.987 11.191C188.739 11.191 194.153 15.2924 194.153 21.8547V22.4289H189.272V21.8547C189.272 17.6712 186.606 15.4154 181.028 15.4154C174.589 15.4154 171.472 18.4915 171.472 25.3409C171.472 32.1903 174.589 35.2253 181.028 35.2253C186.606 35.2253 189.272 33.0106 189.272 28.7861V28.2529H194.153V28.7861C194.153 35.3894 188.78 39.4908 180.987 39.4908ZM219.399 39.0807H197.416V11.6011H219.399V15.5795H201.845V23.2902H218.784V27.2276H201.845V35.1023H219.399V39.0807Z" fill="#04D9D7"/>
<path d="M86.2051 62.2975H82.4603V52.3501H85.9418C86.605 52.3501 87.1853 52.4379 87.6826 52.6135C88.1897 52.789 88.5847 53.0767 88.8675 53.4765C89.1503 53.8764 89.2917 54.4128 89.2917 55.0857C89.2917 55.4855 89.1698 55.8415 88.926 56.1535C88.6822 56.4559 88.4092 56.7143 88.1068 56.9288C88.6042 57.1532 89.0041 57.4701 89.3064 57.8797C89.6185 58.2795 89.7745 58.7915 89.7745 59.4157C89.7745 59.8935 89.6867 60.3129 89.5112 60.6737C89.3454 61.0346 89.1016 61.3369 88.7798 61.5807C88.4677 61.8147 88.0922 61.9952 87.6534 62.1219C87.2145 62.239 86.7318 62.2975 86.2051 62.2975ZM85.737 53.7252H84.0987V56.49H85.4737C85.8638 56.49 86.2198 56.4461 86.5416 56.3583C86.8634 56.2608 87.1121 56.1097 87.2877 55.9049C87.4729 55.7001 87.5656 55.4367 87.5656 55.1149C87.5656 54.7443 87.4925 54.4615 87.3462 54.2665C87.1999 54.0617 86.9902 53.9203 86.7171 53.8422C86.4441 53.7642 86.1174 53.7252 85.737 53.7252ZM86.249 57.8358H84.0987V60.937H86.1027C86.4928 60.937 86.8342 60.8834 87.1267 60.7761C87.4193 60.6689 87.6485 60.5031 87.8143 60.2788C87.9898 60.0545 88.0776 59.7765 88.0776 59.4449C88.0776 58.8988 87.9069 58.4941 87.5656 58.2308C87.234 57.9675 86.7952 57.8358 86.249 57.8358ZM92.7914 62.2975H91.1676V52.1307L92.7914 51.9698V62.2975ZM97.8392 62.4877C97.0883 62.4877 96.4398 62.3316 95.8936 62.0195C95.3475 61.7075 94.9282 61.2735 94.6356 60.7176C94.343 60.152 94.1967 59.4986 94.1967 58.7574C94.1967 57.9967 94.3479 57.3384 94.6502 56.7826C94.9525 56.2267 95.3768 55.7927 95.9229 55.4806C96.4788 55.1686 97.1273 55.0125 97.8685 55.0125C98.6194 55.0125 99.263 55.1686 99.7994 55.4806C100.346 55.7927 100.77 56.2267 101.072 56.7826C101.374 57.3384 101.526 57.9918 101.526 58.7428C101.526 59.4839 101.37 60.1374 101.057 60.703C100.755 61.2686 100.331 61.7075 99.7848 62.0195C99.2387 62.3219 98.5901 62.4779 97.8392 62.4877ZM97.8538 61.0687C98.2634 61.0687 98.6145 60.9663 98.9071 60.7615C99.1997 60.5567 99.424 60.2788 99.58 59.9277C99.7458 59.5766 99.8287 59.1816 99.8287 58.7428C99.8287 58.2942 99.7507 57.8943 99.5946 57.5432C99.4386 57.1922 99.2143 56.9191 98.9217 56.7241C98.6291 56.5193 98.2781 56.4169 97.8685 56.4169C97.4784 56.4169 97.1322 56.5193 96.8299 56.7241C96.5275 56.9288 96.2935 57.2068 96.1277 57.5579C95.9716 57.909 95.8888 58.3039 95.879 58.7428C95.879 59.1914 95.957 59.5912 96.1131 59.9423C96.2691 60.2934 96.4983 60.5713 96.8006 60.7761C97.1029 60.9712 97.454 61.0687 97.8538 61.0687ZM107.913 60.6006L108.396 61.7855C108.191 61.9318 107.933 62.0586 107.621 62.1658C107.309 62.2731 107.006 62.3511 106.714 62.3999C106.421 62.4584 106.173 62.4877 105.968 62.4877C105.227 62.4877 104.583 62.3316 104.037 62.0195C103.491 61.7075 103.066 61.2735 102.764 60.7176C102.472 60.152 102.325 59.4986 102.325 58.7574C102.325 58.0065 102.476 57.3531 102.779 56.7972C103.081 56.2316 103.505 55.7927 104.051 55.4806C104.607 55.1686 105.256 55.0125 105.997 55.0125C106.192 55.0125 106.436 55.0418 106.728 55.1003C107.021 55.1491 107.318 55.2271 107.621 55.3343C107.933 55.4416 108.201 55.5733 108.425 55.7293L107.943 56.8996C107.621 56.7631 107.309 56.6509 107.006 56.5631C106.704 56.4656 106.368 56.4169 105.997 56.4169C105.607 56.4169 105.261 56.5193 104.958 56.7241C104.656 56.9288 104.422 57.2068 104.256 57.5579C104.1 57.909 104.017 58.3039 104.007 58.7428C104.007 59.1914 104.086 59.5912 104.242 59.9423C104.398 60.2934 104.627 60.5713 104.929 60.7761C105.231 60.9712 105.582 61.0687 105.982 61.0687C106.353 61.0687 106.685 61.0297 106.977 60.9517C107.279 60.8639 107.591 60.7469 107.913 60.6006ZM111.377 62.2975H109.753V52.1307L111.377 51.9698V57.9382L114.493 55.0125L115.429 56.1389L113.381 58.026L116.102 62.2975H114.2L112.225 59.0939L111.377 59.8692V62.2975ZM122.099 60.6006L122.582 61.7855C122.377 61.9318 122.118 62.0586 121.806 62.1658C121.494 62.2731 121.192 62.3511 120.899 62.3999C120.607 62.4584 120.358 62.4877 120.153 62.4877C119.412 62.4877 118.768 62.3316 118.222 62.0195C117.676 61.7075 117.252 61.2735 116.95 60.7176C116.657 60.152 116.511 59.4986 116.511 58.7574C116.511 58.0065 116.662 57.3531 116.964 56.7972C117.267 56.2316 117.691 55.7927 118.237 55.4806C118.793 55.1686 119.441 55.0125 120.183 55.0125C120.378 55.0125 120.621 55.0418 120.914 55.1003C121.207 55.1491 121.504 55.2271 121.806 55.3343C122.118 55.4416 122.387 55.5733 122.611 55.7293L122.128 56.8996C121.806 56.7631 121.494 56.6509 121.192 56.5631C120.89 56.4656 120.553 56.4169 120.183 56.4169C119.792 56.4169 119.446 56.5193 119.144 56.7241C118.842 56.9288 118.608 57.2068 118.442 57.5579C118.286 57.909 118.203 58.3039 118.193 58.7428C118.193 59.1914 118.271 59.5912 118.427 59.9423C118.583 60.2934 118.812 60.5713 119.115 60.7761C119.417 60.9712 119.768 61.0687 120.168 61.0687C120.539 61.0687 120.87 61.0297 121.163 60.9517C121.465 60.8639 121.777 60.7469 122.099 60.6006ZM125.563 57.3384L125.314 56.0511C125.587 55.8268 125.875 55.6367 126.177 55.4806C126.489 55.3148 126.806 55.1881 127.128 55.1003C127.45 55.0125 127.757 54.9686 128.049 54.9686C128.634 54.9686 129.093 55.0905 129.424 55.3343C129.766 55.5782 130.01 55.9097 130.156 56.3291C130.312 56.7387 130.39 57.2068 130.39 57.7334V62.2975H128.752V57.8358C128.752 57.3677 128.664 57.002 128.488 56.7387C128.313 56.4754 128.03 56.3437 127.64 56.3437C127.406 56.3437 127.162 56.3925 126.908 56.49C126.665 56.5875 126.43 56.7143 126.206 56.8703C125.982 57.0264 125.767 57.1824 125.563 57.3384ZM125.563 62.2975H123.939V52.1307L125.563 51.9698V62.2975ZM133.279 60.2056C133.279 60.3714 133.318 60.5274 133.396 60.6737C133.483 60.82 133.605 60.9419 133.761 61.0394C133.917 61.1272 134.103 61.1711 134.317 61.1711C134.629 61.1711 134.932 61.098 135.224 60.9517C135.517 60.8054 135.79 60.6055 136.043 60.3519V59.0792H134.449C134.078 59.0792 133.791 59.1963 133.586 59.4303C133.381 59.6644 133.279 59.9228 133.279 60.2056ZM132.679 56.9874L132.24 55.6415C132.425 55.5148 132.674 55.4075 132.986 55.3197C133.298 55.2222 133.615 55.1491 133.937 55.1003C134.259 55.0418 134.517 55.0125 134.712 55.0125C135.268 55.0125 135.77 55.1247 136.219 55.349C136.668 55.5635 137.024 55.8658 137.287 56.2559C137.56 56.646 137.696 57.08 137.696 57.5579V62.2975H136.585L136.336 61.5807C136.082 61.8245 135.78 62.0342 135.429 62.2097C135.078 62.3853 134.717 62.473 134.347 62.473C133.498 62.473 132.869 62.2634 132.459 61.844C132.05 61.4247 131.845 60.8785 131.845 60.2056C131.845 59.4937 132.089 58.9476 132.576 58.5672C133.064 58.1869 133.698 57.9918 134.478 57.9821H136.029V57.9382C136.019 57.5189 135.917 57.1775 135.722 56.9142C135.527 56.6412 135.2 56.5046 134.742 56.5046C134.371 56.5046 134 56.5583 133.63 56.6655C133.269 56.7631 132.952 56.8703 132.679 56.9874ZM140.974 62.2975H139.321V55.2027H140.974V62.2975ZM140.125 54.0617C139.852 54.0617 139.623 53.969 139.438 53.7837C139.262 53.5984 139.175 53.3644 139.175 53.0816C139.175 52.8085 139.262 52.5793 139.438 52.394C139.623 52.2087 139.852 52.1161 140.125 52.1161C140.389 52.1161 140.618 52.2087 140.813 52.394C141.008 52.5793 141.106 52.8085 141.106 53.0816C141.106 53.3546 141.008 53.5887 140.813 53.7837C140.628 53.969 140.399 54.0617 140.125 54.0617ZM144.288 62.2975H142.649V55.2027H143.747L144.039 56.0511C144.312 55.8268 144.6 55.6367 144.902 55.4806C145.214 55.3148 145.531 55.1881 145.853 55.1003C146.175 55.0125 146.477 54.9686 146.76 54.9686C147.345 54.9686 147.808 55.0905 148.15 55.3343C148.491 55.5782 148.735 55.9097 148.881 56.3291C149.037 56.7387 149.115 57.2068 149.115 57.7334V62.2975H147.462V57.8358C147.462 57.3677 147.374 57.002 147.199 56.7387C147.033 56.4754 146.755 56.3437 146.365 56.3437C146.131 56.3437 145.887 56.3925 145.634 56.49C145.39 56.5875 145.156 56.7143 144.931 56.8703C144.707 57.0264 144.493 57.1824 144.288 57.3384V62.2975ZM161.143 62.2975H154.517V52.3501H160.266L160.514 53.6375H156.141V56.607H159.461L159.71 57.909H156.141V61.0102H160.895L161.143 62.2975ZM167.427 60.6006L167.91 61.7855C167.705 61.9318 167.447 62.0586 167.134 62.1658C166.822 62.2731 166.52 62.3511 166.228 62.3999C165.935 62.4584 165.686 62.4877 165.481 62.4877C164.74 62.4877 164.097 62.3316 163.55 62.0195C163.004 61.7075 162.58 61.2735 162.278 60.7176C161.985 60.152 161.839 59.4986 161.839 58.7574C161.839 58.0065 161.99 57.3531 162.292 56.7972C162.595 56.2316 163.019 55.7927 163.565 55.4806C164.121 55.1686 164.77 55.0125 165.511 55.0125C165.706 55.0125 165.95 55.0418 166.242 55.1003C166.535 55.1491 166.832 55.2271 167.134 55.3343C167.447 55.4416 167.715 55.5733 167.939 55.7293L167.456 56.8996C167.134 56.7631 166.822 56.6509 166.52 56.5631C166.218 56.4656 165.881 56.4169 165.511 56.4169C165.121 56.4169 164.774 56.5193 164.472 56.7241C164.17 56.9288 163.936 57.2068 163.77 57.5579C163.614 57.909 163.531 58.3039 163.521 58.7428C163.521 59.1914 163.599 59.5912 163.755 59.9423C163.911 60.2934 164.141 60.5713 164.443 60.7761C164.745 60.9712 165.096 61.0687 165.496 61.0687C165.867 61.0687 166.198 61.0297 166.491 60.9517C166.793 60.8639 167.105 60.7469 167.427 60.6006ZM172.324 62.4877C171.573 62.4877 170.925 62.3316 170.379 62.0195C169.833 61.7075 169.413 61.2735 169.121 60.7176C168.828 60.152 168.682 59.4986 168.682 58.7574C168.682 57.9967 168.833 57.3384 169.135 56.7826C169.438 56.2267 169.862 55.7927 170.408 55.4806C170.964 55.1686 171.612 55.0125 172.353 55.0125C173.104 55.0125 173.748 55.1686 174.284 55.4806C174.831 55.7927 175.255 56.2267 175.557 56.7826C175.859 57.3384 176.011 57.9918 176.011 58.7428C176.011 59.4839 175.855 60.1374 175.542 60.703C175.24 61.2686 174.816 61.7075 174.27 62.0195C173.724 62.3219 173.075 62.4779 172.324 62.4877ZM172.339 61.0687C172.748 61.0687 173.1 60.9663 173.392 60.7615C173.685 60.5567 173.909 60.2788 174.065 59.9277C174.231 59.5766 174.314 59.1816 174.314 58.7428C174.314 58.2942 174.236 57.8943 174.08 57.5432C173.924 57.1922 173.699 56.9191 173.407 56.7241C173.114 56.5193 172.763 56.4169 172.353 56.4169C171.963 56.4169 171.617 56.5193 171.315 56.7241C171.013 56.9288 170.779 57.2068 170.613 57.5579C170.457 57.909 170.374 58.3039 170.364 58.7428C170.364 59.1914 170.442 59.5912 170.598 59.9423C170.754 60.2934 170.983 60.5713 171.286 60.7761C171.588 60.9712 171.939 61.0687 172.339 61.0687ZM176.854 61.8001L177.352 60.6737C177.566 60.7615 177.781 60.8444 177.995 60.9224C178.21 60.9907 178.419 61.0443 178.624 61.0833C178.829 61.1223 179.034 61.1418 179.239 61.1418C179.473 61.1418 179.692 61.1126 179.897 61.0541C180.102 60.9956 180.267 60.9078 180.394 60.7908C180.521 60.6737 180.584 60.5372 180.584 60.3812C180.584 60.2251 180.526 60.0837 180.409 59.9569C180.292 59.8204 180.131 59.6985 179.926 59.5912C179.721 59.4742 179.473 59.3767 179.18 59.2987C178.809 59.1621 178.444 59.0012 178.083 58.8159C177.722 58.6306 177.42 58.4014 177.176 58.1284C176.942 57.8456 176.825 57.514 176.825 57.1336C176.825 56.4705 177.069 55.9536 177.556 55.583C178.044 55.2027 178.712 55.0125 179.56 55.0125C179.765 55.0125 180.009 55.0418 180.292 55.1003C180.575 55.1491 180.862 55.2271 181.155 55.3343C181.447 55.4319 181.701 55.5587 181.916 55.7147L181.404 56.8411C181.101 56.6948 180.804 56.5778 180.511 56.49C180.219 56.3925 179.892 56.3437 179.531 56.3437C179.229 56.3437 178.975 56.4169 178.77 56.5631C178.575 56.7094 178.478 56.8898 178.478 57.1044C178.478 57.2897 178.605 57.4506 178.858 57.5871C179.122 57.7237 179.424 57.8504 179.765 57.9675C180.155 58.0942 180.531 58.2698 180.892 58.4941C181.262 58.7086 181.565 58.9671 181.799 59.2694C182.042 59.562 182.164 59.9131 182.164 60.3226C182.164 60.9956 181.916 61.5271 181.418 61.9171C180.921 62.2975 180.199 62.4877 179.253 62.4877C179.058 62.4877 178.809 62.4633 178.507 62.4145C178.205 62.3658 177.907 62.2877 177.615 62.1805C177.322 62.0732 177.069 61.9464 176.854 61.8001ZM184.854 62.9265L185.249 61.961L182.718 55.4806L184.313 54.9394L186.127 59.9131L187.838 55.2027H189.564L186.405 63.4092C186.268 63.7603 186.058 64.0822 185.776 64.3747C185.503 64.6673 185.186 64.9111 184.825 65.1061C184.464 65.3012 184.089 65.4475 183.698 65.545L183.128 64.2138C183.352 64.1163 183.581 64.009 183.815 63.892C184.059 63.775 184.274 63.6384 184.459 63.4824C184.644 63.3264 184.776 63.1411 184.854 62.9265ZM190.168 61.8001L190.666 60.6737C190.88 60.7615 191.095 60.8444 191.309 60.9224C191.524 60.9907 191.734 61.0443 191.938 61.0833C192.143 61.1223 192.348 61.1418 192.553 61.1418C192.787 61.1418 193.006 61.1126 193.211 61.0541C193.416 60.9956 193.582 60.9078 193.708 60.7908C193.835 60.6737 193.899 60.5372 193.899 60.3812C193.899 60.2251 193.84 60.0837 193.723 59.9569C193.606 59.8204 193.445 59.6985 193.24 59.5912C193.035 59.4742 192.787 59.3767 192.494 59.2987C192.124 59.1621 191.758 59.0012 191.397 58.8159C191.036 58.6306 190.734 58.4014 190.49 58.1284C190.256 57.8456 190.139 57.514 190.139 57.1336C190.139 56.4705 190.383 55.9536 190.87 55.583C191.358 55.2027 192.026 55.0125 192.875 55.0125C193.079 55.0125 193.323 55.0418 193.606 55.1003C193.889 55.1491 194.177 55.2271 194.469 55.3343C194.762 55.4319 195.015 55.5587 195.23 55.7147L194.718 56.8411C194.415 56.6948 194.118 56.5778 193.825 56.49C193.533 56.3925 193.206 56.3437 192.845 56.3437C192.543 56.3437 192.289 56.4169 192.085 56.5631C191.89 56.7094 191.792 56.8898 191.792 57.1044C191.792 57.2897 191.919 57.4506 192.172 57.5871C192.436 57.7237 192.738 57.8504 193.079 57.9675C193.469 58.0942 193.845 58.2698 194.206 58.4941C194.576 58.7086 194.879 58.9671 195.113 59.2694C195.357 59.562 195.478 59.9131 195.478 60.3226C195.478 60.9956 195.23 61.5271 194.732 61.9171C194.235 62.2975 193.513 62.4877 192.567 62.4877C192.372 62.4877 192.124 62.4633 191.821 62.4145C191.519 62.3658 191.222 62.2877 190.929 62.1805C190.636 62.0732 190.383 61.9464 190.168 61.8001ZM199.982 55.2612L200.48 56.5046H198.695V59.9131C198.695 60.2739 198.778 60.5713 198.944 60.8054C199.109 61.0297 199.363 61.1418 199.704 61.1418C199.831 61.1418 199.958 61.1272 200.085 61.098C200.211 61.0687 200.333 61.0297 200.45 60.9809L200.904 62.1951C200.816 62.2536 200.694 62.3121 200.538 62.3706C200.392 62.4291 200.231 62.4779 200.055 62.5169C199.89 62.5559 199.733 62.5754 199.587 62.5754C199.061 62.5754 198.612 62.4828 198.241 62.2975C197.871 62.1122 197.578 61.844 197.364 61.4929C197.159 61.1321 197.056 60.6932 197.056 60.1764V56.5046H196.076L196.062 55.2612H197.056V53.5204L198.695 53.1986V55.2612H199.982ZM208.223 59.1816H203.308C203.356 59.562 203.459 59.8935 203.615 60.1764C203.781 60.4592 204.02 60.6835 204.332 60.8493C204.653 61.0053 205.068 61.0833 205.575 61.0833C205.985 61.0833 206.345 61.0248 206.658 60.9078C206.979 60.7908 207.316 60.6396 207.667 60.4543L208.164 61.6538C207.94 61.8001 207.696 61.9415 207.433 62.0781C207.17 62.2048 206.882 62.3024 206.57 62.3706C206.258 62.4389 205.916 62.473 205.546 62.473C204.678 62.473 203.946 62.3219 203.352 62.0195C202.757 61.7075 202.313 61.2735 202.02 60.7176C201.728 60.152 201.581 59.4986 201.581 58.7574C201.581 58.0065 201.718 57.3531 201.991 56.7972C202.274 56.2316 202.674 55.7927 203.191 55.4806C203.717 55.1686 204.341 55.0125 205.063 55.0125C205.794 55.0125 206.394 55.1881 206.862 55.5391C207.33 55.8902 207.672 56.3535 207.886 56.9288C208.111 57.5042 208.223 58.1381 208.223 58.8305V59.1816ZM203.337 58.0699H206.643C206.584 57.7188 206.482 57.4213 206.336 57.1775C206.199 56.9337 206.019 56.7484 205.794 56.6217C205.58 56.4851 205.317 56.4169 205.005 56.4169C204.702 56.4169 204.429 56.4851 204.185 56.6217C203.951 56.7484 203.761 56.9337 203.615 57.1775C203.478 57.4213 203.386 57.7188 203.337 58.0699ZM211.101 62.2975H209.463V55.2027H210.56L210.853 56.0511C211.126 55.8268 211.409 55.6367 211.701 55.4806C212.004 55.3148 212.306 55.1881 212.608 55.1003C212.92 55.0125 213.203 54.9686 213.457 54.9686C213.993 54.9686 214.427 55.0808 214.759 55.3051C215.09 55.5196 215.329 55.822 215.475 56.2121C215.631 56.6021 215.709 57.0605 215.709 57.5871V62.2975H214.056V57.8358C214.056 57.5237 214.022 57.2604 213.954 57.0459C213.896 56.8216 213.793 56.6509 213.647 56.5339C213.51 56.4071 213.315 56.3437 213.062 56.3437C212.837 56.3437 212.613 56.3925 212.389 56.49C212.164 56.5875 211.945 56.7143 211.731 56.8703C211.516 57.0264 211.306 57.1824 211.101 57.3384V62.2975ZM215.636 57.3384L215.388 56.0511C215.651 55.8268 215.934 55.6367 216.236 55.4806C216.538 55.3148 216.841 55.1881 217.143 55.1003C217.445 55.0125 217.728 54.9686 217.991 54.9686C218.528 54.9686 218.962 55.0808 219.293 55.3051C219.625 55.5196 219.864 55.822 220.01 56.2121C220.166 56.6021 220.244 57.0605 220.244 57.5871V62.2975H218.591V57.8358C218.591 57.5237 218.557 57.2604 218.489 57.0459C218.43 56.8216 218.328 56.6509 218.182 56.5339C218.045 56.4071 217.85 56.3437 217.597 56.3437C217.382 56.3437 217.163 56.3925 216.938 56.49C216.714 56.5875 216.49 56.7143 216.265 56.8703C216.051 57.0264 215.841 57.1824 215.636 57.3384Z" fill="white"/>
</svg>
